<svg width="243" height="52" viewBox="0 0 243 52" fill="none" xmlns="http://www.w3.org/2000/svg">
<path d="M53.5558 14.522C53.5272 14.6367 52.3518 15.9267 50.0298 18.392C48.3672 20.112 46.9338 21.8607 45.7298 23.638C43.4938 26.992 42.0318 29.5433 41.3438 31.292C40.4838 33.4993 40.0538 34.8753 40.0538 35.42C40.0538 36.2227 40.3692 36.624 40.9998 36.624C41.9172 36.624 43.2358 35.9933 44.9558 34.732C48.2812 32.2667 50.1445 31.034 50.5459 31.034C50.7752 31.034 50.9472 31.163 51.0618 31.421C51.2052 31.679 51.2052 31.9227 51.0618 32.152C51.1478 31.98 49.4278 33.2413 45.9018 35.936C43.8092 37.5413 41.9745 38.344 40.3978 38.344C39.7672 38.344 39.2082 38.086 38.7208 37.57C38.2335 37.0253 37.9898 36.3947 37.9898 35.678C37.9898 35.1333 38.4198 33.7287 39.2798 31.464C39.4232 31.0913 40.2258 29.4287 41.6878 26.476C39.9392 27.164 38.5918 27.68 37.6458 28.024C35.8685 28.6547 34.3778 29.1133 33.1738 29.4L30.9378 29.916C30.6512 30.2027 30.1638 30.7903 29.4758 31.679C28.7878 32.5677 28.1858 33.27 27.6698 33.786C25.7205 35.7353 24.6312 36.6813 24.4018 36.624C23.4845 36.3373 23.0832 36.022 23.1978 35.678L26.1218 32.41C27.2685 31.1487 27.9278 30.4033 28.0998 30.174C27.3258 29.83 26.9532 29.5147 26.9818 29.228C27.0392 28.5973 27.3545 28.3107 27.9278 28.368C28.7878 28.4253 29.3325 28.368 29.5618 28.196C30.0492 27.6513 30.9092 26.5477 32.1418 24.885C33.5752 22.9643 34.5785 21.66 35.1518 20.972C37.5885 17.9907 38.9072 16.3567 39.1078 16.07L37.1298 17.231C35.7252 18.091 34.4352 18.908 33.2598 19.682C28.3292 22.9787 25.7492 25.358 25.5198 26.82C25.4912 26.9633 25.5485 27.207 25.6918 27.551C25.7778 27.8377 25.7778 28.0527 25.6918 28.196C25.3765 28.712 24.8318 28.8267 24.0578 28.54C23.3125 28.2533 22.9685 27.852 23.0258 27.336C23.1978 25.96 26.0645 23.1507 31.6258 18.908C32.8298 17.9907 35.5245 16.2133 39.7098 13.576C42.2898 11.9133 43.6658 11.082 43.8378 11.082C44.1818 11.0533 44.4542 11.211 44.6548 11.555C44.8555 11.8703 44.9272 12.2 44.8698 12.544C44.9272 12.3147 43.7518 13.6047 41.3438 16.414L38.5488 19.639C37.3735 21.0437 36.3558 22.2907 35.4958 23.38L32.3998 27.594C32.8012 27.594 34.4352 27.1067 37.3018 26.132C40.4838 25.0427 42.3758 24.2973 42.9778 23.896C43.3792 23.466 43.9382 22.7923 44.6548 21.875C45.4288 20.8717 46.0452 20.112 46.5038 19.596C50.0012 15.6973 52.0079 13.7193 52.5239 13.662C52.7245 13.6333 52.9538 13.705 53.2118 13.877C53.4698 14.0777 53.5845 14.2927 53.5558 14.522ZM74.642 31.722C74.642 31.9227 72.5636 33.4133 68.407 36.194C65.4256 38.2007 62.946 39.204 60.968 39.204C59.5346 39.204 58.646 38.5733 58.302 37.312C58.13 36.6527 58.1156 35.8787 58.259 34.99C57.055 35.7927 55.937 36.452 54.905 36.968C53.1276 37.8853 51.6226 38.344 50.39 38.344C48.67 38.344 47.81 37.4553 47.81 35.678C47.81 34.1873 49.1143 32.0517 51.723 29.271C54.5323 26.175 56.5533 24.6413 57.786 24.67C59.2193 24.7273 60.4233 25.4153 61.398 26.734C61.656 27.078 61.957 27.809 62.301 28.927C63.5336 28.1817 64.0066 27.7947 63.72 27.766C64.6086 27.8233 65.01 28.1673 64.924 28.798C64.838 29.314 64.193 30.217 62.989 31.507C62.0716 32.5677 61.355 33.313 60.839 33.743C60.2083 35.2337 59.9073 36.108 59.936 36.366C60.022 37.1113 60.452 37.484 61.226 37.484C62.43 37.484 64.5083 36.624 67.461 34.904C72.2483 32.1233 74.4413 30.7473 74.04 30.776C74.4413 30.7473 74.642 31.0627 74.642 31.722ZM60.624 29.142C60.624 28.6833 60.3373 28.11 59.764 27.422C59.162 26.7053 58.5886 26.3613 58.044 26.39C57.012 26.4473 55.2633 27.8233 52.798 30.518C50.5046 33.0693 49.4153 34.7893 49.53 35.678C49.616 36.28 50.046 36.624 50.82 36.71C51.3933 36.7673 52.583 36.3087 54.389 35.334C57.313 33.8147 59.3626 32.281 60.538 30.733L60.624 29.142ZM98.8926 31.292C98.8926 32.0373 96.8 33.614 92.6146 36.022C90.092 37.4553 88.2573 38.172 87.1106 38.172C86.7666 38.172 86.4226 37.9713 86.0786 37.57C85.7346 37.1973 85.5626 36.8533 85.5626 36.538C85.5626 35.9933 86.1646 34.7893 87.3686 32.926C88.5153 31.12 89.0886 29.916 89.0886 29.314C89.06 29.0273 88.888 28.884 88.5726 28.884C87.34 28.884 85.8206 29.6007 84.0146 31.034C82.782 32.0373 81.406 33.2987 79.8866 34.818C79.6286 35.076 79.2273 35.5203 78.6826 36.151L77.3066 37.785C76.16 39.0463 75.3 39.634 74.7266 39.548C73.9813 39.462 73.58 39.0033 73.5226 38.172C73.5226 38.086 74.01 37.656 74.9846 36.882C76.6186 35.592 77.7366 34.5887 78.3386 33.872C80.46 31.4067 81.578 29.572 81.6926 28.368C81.7786 27.852 81.6066 27.594 81.1766 27.594C80.8326 27.594 79.514 28.3107 77.2206 29.744C76.59 30.1453 75.6296 30.8907 74.3396 31.98C73.3363 32.84 72.7486 33.27 72.5766 33.27C72.1753 33.2127 71.946 32.9547 71.8886 32.496C71.8026 31.9227 73.322 30.5753 76.4466 28.454C79.1986 26.6193 81.1193 25.702 82.2086 25.702C83.126 25.702 83.6133 26.218 83.6706 27.25C83.6993 27.7087 83.5846 28.3393 83.3266 29.142C83.728 29.056 84.1006 28.927 84.4446 28.755C84.9033 28.497 85.2186 28.3393 85.3906 28.282C87.254 27.6227 88.544 27.3073 89.2606 27.336C90.35 27.3647 90.8946 27.9953 90.8946 29.228C90.8946 29.83 90.3213 31.0627 89.1746 32.926C88.2 34.474 87.7126 35.4773 87.7126 35.936C87.7126 36.1653 87.8273 36.28 88.0566 36.28C88.9166 36.28 90.3213 35.678 92.2706 34.474C92.5573 34.302 93.6323 33.5853 95.4956 32.324C97.1296 31.2633 98.004 30.7187 98.1186 30.69C98.6346 30.6327 98.8926 30.8333 98.8926 31.292ZM125.835 31.206C125.892 31.4927 125.247 32.1663 123.9 33.227C122.581 34.2303 121.263 35.1047 119.944 35.85C117.421 37.2547 115.673 37.9713 114.698 38C112.949 38.0287 111.731 37.3407 111.043 35.936C110.699 35.1907 110.527 34.5887 110.527 34.13C107.431 36.538 104.55 37.7993 101.884 37.914C100.279 38 99.5048 37.398 99.5622 36.108C99.5908 35.4773 99.9922 34.4453 100.766 33.012C101.511 31.5787 102.185 30.5897 102.787 30.045C102.5 30.217 102.07 30.432 101.497 30.69L99.9922 31.464C97.6128 32.7253 96.4375 33.356 96.4662 33.356C95.9502 33.2987 95.7208 33.0407 95.7782 32.582C95.8928 31.7507 97.5555 30.6613 100.766 29.314C101.139 29.1707 101.927 28.7693 103.131 28.11C104.134 27.5367 104.837 27.2213 105.238 27.164C105.525 27.1067 105.811 27.1927 106.098 27.422C106.385 27.6227 106.528 27.852 106.528 28.11C106.528 28.4253 105.754 29.4287 104.206 31.12C102.658 32.84 101.798 34.2447 101.626 35.334C101.569 35.7927 101.54 35.9647 101.54 35.85C101.54 36.022 101.669 36.1223 101.927 36.151C103.876 36.237 106.428 35.1047 109.581 32.754C110.814 31.808 111.817 30.9193 112.591 30.088C114.139 28.368 114.97 27.508 115.085 27.508C115.945 27.5367 116.418 27.9953 116.504 28.884C116.504 29.1133 116.217 29.5147 115.644 30.088C114.899 30.862 114.426 31.4067 114.225 31.722C113.164 33.2127 112.634 34.13 112.634 34.474C112.605 34.9613 112.749 35.377 113.064 35.721C113.437 36.151 113.924 36.366 114.526 36.366C115.271 36.366 116.619 35.8213 118.568 34.732C119.571 34.1587 120.904 33.2987 122.567 32.152C124.201 31.0627 125.004 30.518 124.975 30.518C125.376 30.2887 125.663 30.518 125.835 31.206ZM141.185 32.066C141.128 32.8113 138.978 34.1587 134.735 36.108C131.152 37.7133 128.486 38.4873 126.737 38.43C125.848 38.4013 125.089 38.129 124.458 37.613C123.77 37.0397 123.383 36.28 123.297 35.334C123.154 33.6427 124.071 31.5787 126.049 29.142C128.572 26.0747 130.894 24.5267 133.015 24.498C133.789 24.4693 134.391 24.8563 134.821 25.659C135.222 26.347 135.409 27.164 135.38 28.11C135.351 28.884 135.122 29.6723 134.692 30.475C134.233 31.335 133.789 31.7507 133.359 31.722C132.9 31.6647 132.7 31.3493 132.757 30.776C132.757 30.8333 132.958 30.3603 133.359 29.357C133.703 28.583 133.789 27.938 133.617 27.422C133.359 26.5333 133.101 26.1033 132.843 26.132C130.922 26.3327 129.088 27.68 127.339 30.174C125.963 32.1807 125.246 33.7573 125.189 34.904C125.132 36.3947 125.705 37.054 126.909 36.882C128.6 36.6527 130.836 35.9647 133.617 34.818C134.706 34.388 136.154 33.6427 137.96 32.582C139.565 31.636 140.44 31.1487 140.583 31.12C141.042 31.034 141.242 31.3493 141.185 32.066ZM164.715 31.722C164.715 31.9227 162.637 33.4133 158.48 36.194C155.499 38.2007 153.019 39.204 151.041 39.204C149.608 39.204 148.719 38.5733 148.375 37.312C148.203 36.6527 148.189 35.8787 148.332 34.99C147.128 35.7927 146.01 36.452 144.978 36.968C143.201 37.8853 141.696 38.344 140.463 38.344C138.743 38.344 137.883 37.4553 137.883 35.678C137.883 34.1873 139.188 32.0517 141.796 29.271C144.606 26.175 146.627 24.6413 147.859 24.67C149.293 24.7273 150.497 25.4153 151.471 26.734C151.729 27.078 152.03 27.809 152.374 28.927C153.607 28.1817 154.08 27.7947 153.793 27.766C154.682 27.8233 155.083 28.1673 154.997 28.798C154.911 29.314 154.266 30.217 153.062 31.507C152.145 32.5677 151.428 33.313 150.912 33.743C150.282 35.2337 149.981 36.108 150.009 36.366C150.095 37.1113 150.525 37.484 151.299 37.484C152.503 37.484 154.582 36.624 157.534 34.904C162.322 32.1233 164.515 30.7473 164.113 30.776C164.515 30.7473 164.715 31.0627 164.715 31.722ZM150.697 29.142C150.697 28.6833 150.411 28.11 149.837 27.422C149.235 26.7053 148.662 26.3613 148.117 26.39C147.085 26.4473 145.337 27.8233 142.871 30.518C140.578 33.0693 139.489 34.7893 139.603 35.678C139.689 36.28 140.119 36.624 140.893 36.71C141.467 36.7673 142.656 36.3087 144.462 35.334C147.386 33.8147 149.436 32.281 150.611 30.733L150.697 29.142ZM206.166 31.034C206.109 31.9227 203.758 33.7573 199.114 36.538C196.305 38.2007 193.839 39.118 191.718 39.29C191.087 39.3473 190.514 39.1037 189.998 38.559C189.482 38.0143 189.224 37.3407 189.224 36.538C189.224 36.022 189.797 34.646 190.944 32.41C191.116 32.0373 191.546 31.378 192.234 30.432C192.779 29.7153 193.037 29.228 193.008 28.97C192.979 28.5687 192.693 28.3393 192.148 28.282C191.345 28.2247 189.109 29.3713 185.44 31.722C184.895 32.238 184.121 33.1553 183.118 34.474C182.229 35.6207 181.541 36.194 181.054 36.194C180.452 36.194 180.079 35.85 179.936 35.162C179.907 35.0473 180.767 34.0727 182.516 32.238C183.777 30.948 184.408 29.8157 184.408 28.841C184.408 28.1817 184.035 27.852 183.29 27.852C182.373 27.852 181.283 28.0813 180.022 28.54C177.585 29.4573 175.665 30.4893 174.26 31.636C173.601 32.1807 172.913 32.84 172.196 33.614C171.307 34.5887 170.705 35.2193 170.39 35.506C168.985 36.7387 168.125 37.3407 167.81 37.312C167.294 37.226 167.007 36.8533 166.95 36.194C166.921 35.8787 167.609 34.99 169.014 33.528C170.705 31.7793 171.537 30.69 171.508 30.26C171.451 29.6293 171.135 29.314 170.562 29.314C169.817 29.314 168.441 29.8013 166.434 30.776C165.918 31.0053 165.115 31.5357 164.026 32.367C163.137 33.0263 162.593 33.3273 162.392 33.27C161.733 33.098 161.417 32.84 161.446 32.496C161.532 31.7793 162.994 30.6613 165.832 29.142C167.38 28.3107 169.215 27.7947 171.336 27.594C171.852 27.5367 172.354 27.7947 172.841 28.368C173.242 28.884 173.486 29.4 173.572 29.916C174.289 29.3713 175.822 28.626 178.173 27.68C180.667 26.648 182.373 26.132 183.29 26.132C184.809 26.132 185.727 26.82 186.042 28.196C186.157 28.626 186.214 29.0273 186.214 29.4C186.587 29.2853 187.69 28.7263 189.525 27.723C191.073 26.9203 192.119 26.5333 192.664 26.562C194.097 26.648 194.843 27.2787 194.9 28.454C194.9 28.3393 194.183 29.7153 192.75 32.582C191.546 35.0473 190.944 36.3373 190.944 36.452C190.944 37.2547 191.259 37.656 191.89 37.656C193.209 37.656 195.387 36.8247 198.426 35.162C199.372 34.646 200.891 33.614 202.984 32.066C204.561 30.9193 205.507 30.3747 205.822 30.432C206.051 30.4893 206.166 30.69 206.166 31.034ZM212.694 32.281C212.981 33.3703 212.508 34.603 211.275 35.979C210.1 37.3263 208.853 38.1433 207.534 38.43C206.531 38.6593 205.542 38.4443 204.567 37.785C203.535 37.097 203.033 36.2657 203.062 35.291C203.119 33.8003 204.323 32.0803 206.674 30.131L208.867 27.207C209.899 25.8597 210.644 25.1287 211.103 25.014C211.705 24.842 212.02 25.0713 212.049 25.702C212.078 25.9313 211.863 26.304 211.404 26.82C210.802 27.508 210.415 27.981 210.243 28.239C209.584 29.185 209.082 29.9877 208.738 30.647C209.426 30.5897 209.885 30.5897 210.114 30.647C211.605 30.733 212.465 31.2777 212.694 32.281ZM211.06 33.012C210.945 32.2667 210.257 31.98 208.996 32.152C207.792 32.324 206.975 32.582 206.545 32.926C205.714 34.646 205.269 35.42 205.212 35.248C205.327 35.7353 205.599 36.1223 206.029 36.409C206.43 36.6957 206.875 36.796 207.362 36.71C208.107 36.624 208.939 36.151 209.856 35.291C210.802 34.431 211.203 33.6713 211.06 33.012Z" fill="black"/>
<path d="M100.402 11C83.5972 11.2313 68.1951 12.9672 51.7393 16.6947C43.7928 18.4947 27.8466 22.5682 19.5369 25.038C14.5269 26.5271 7.37742 28.1592 3.27233 32.2557C-4.60615 40.1177 10.1386 45.4712 15.0951 46.6248C31.7292 50.4965 58.1023 51.0611 73.752 50.9952C99.4473 50.8869 134.486 48.7535 160.104 46.4924C184.078 44.3764 208.358 41.6936 231.89 36.3612C242.096 34.0485 248.803 27.4625 231.89 25.038C183.489 18.0994 136.201 20.7958 87.5 22" stroke="black" stroke-linecap="round"/>
</svg>
