<svg width="251" height="73" viewBox="0 0 251 73" fill="none" xmlns="http://www.w3.org/2000/svg">
<path d="M56.7701 7.672C56.7128 11.4847 54.4768 15.756 50.0621 20.486C44.4148 26.5347 39.5128 29.516 35.3561 29.43C33.5214 29.3727 32.0308 28.957 30.8841 28.183C29.6801 27.323 29.0781 26.1333 29.0781 24.614C29.0781 22.5213 30.4541 19.6833 33.2061 16.1C33.7221 15.4407 34.4961 14.552 35.5281 13.434C36.4741 12.3733 37.0474 11.714 37.2481 11.456C36.6461 11.5993 34.5248 12.7173 30.8841 14.81C30.4541 15.068 29.6228 15.6127 28.3901 16.444C27.5014 17.046 26.8994 17.39 26.5841 17.476C26.4121 17.5047 26.2544 17.4187 26.1111 17.218C25.9964 17.0173 25.9534 16.8167 25.9821 16.616C26.0108 16.1 27.5588 14.9533 30.6261 13.176C31.0561 12.918 32.6614 12.0723 35.4421 10.639C37.8788 9.349 39.3981 8.50333 40.0001 8.102L43.3541 5.178L45.1171 3.157C45.7478 2.41167 46.3354 2.082 46.8801 2.168C47.3674 2.22533 47.5968 2.426 47.5681 2.77C47.5394 3.05667 47.3388 3.47233 46.9661 4.017C46.5934 4.56167 46.3928 4.92 46.3641 5.092C49.1734 4.03133 50.9221 3.51533 51.6101 3.544C53.1294 3.60133 54.3621 3.98833 55.3081 4.705C56.3114 5.479 56.7988 6.468 56.7701 7.672ZM54.9641 7.5C54.8494 5.952 53.5881 5.178 51.1801 5.178C48.2848 5.178 44.6154 7.27067 40.1721 11.456C37.1621 14.2367 35.0121 16.5587 33.7221 18.422C31.8301 21.1167 30.8841 23.1807 30.8841 24.614C30.8841 25.56 31.3141 26.3197 32.1741 26.893C33.0341 27.495 34.1234 27.796 35.4421 27.796C36.7894 27.796 38.7101 27.065 41.2041 25.603C44.0708 23.9117 46.7368 21.7473 49.2021 19.11C50.7214 17.4187 52.0688 15.412 53.2441 13.09C54.4768 10.682 55.0501 8.81867 54.9641 7.5ZM97.4642 22.034C97.4069 22.9227 95.0562 24.7573 90.4122 27.538C87.6029 29.2007 85.1375 30.118 83.0162 30.29C82.3855 30.3473 81.8122 30.1037 81.2962 29.559C80.7802 29.0143 80.5222 28.3407 80.5222 27.538C80.5222 27.022 81.0955 25.646 82.2422 23.41C82.4142 23.0373 82.8442 22.378 83.5322 21.432C84.0769 20.7153 84.3349 20.228 84.3062 19.97C84.2775 19.5687 83.9909 19.3393 83.4462 19.282C82.6435 19.2247 80.4075 20.3713 76.7382 22.722C76.1935 23.238 75.4195 24.1553 74.4162 25.474C73.5275 26.6207 72.8395 27.194 72.3522 27.194C71.7502 27.194 71.3775 26.85 71.2342 26.162C71.2055 26.0473 72.0655 25.0727 73.8142 23.238C75.0755 21.948 75.7062 20.8157 75.7062 19.841C75.7062 19.1817 75.3335 18.852 74.5882 18.852C73.6709 18.852 72.5815 19.0813 71.3202 19.54C68.8835 20.4573 66.9629 21.4893 65.5582 22.636C64.8989 23.1807 64.2109 23.84 63.4942 24.614C62.6055 25.5887 62.0035 26.2193 61.6882 26.506C60.2835 27.7387 59.4235 28.3407 59.1082 28.312C58.5922 28.226 58.3055 27.8533 58.2482 27.194C58.2195 26.8787 58.9075 25.99 60.3122 24.528C62.0035 22.7793 62.8349 21.69 62.8062 21.26C62.7489 20.6293 62.4335 20.314 61.8602 20.314C61.1149 20.314 59.7389 20.8013 57.7322 21.776C57.2162 22.0053 56.4135 22.5357 55.3242 23.367C54.4355 24.0263 53.8909 24.3273 53.6902 24.27C53.0309 24.098 52.7155 23.84 52.7442 23.496C52.8302 22.7793 54.2922 21.6613 57.1302 20.142C58.6782 19.3107 60.5129 18.7947 62.6342 18.594C63.1502 18.5367 63.6519 18.7947 64.1392 19.368C64.5405 19.884 64.7842 20.4 64.8702 20.916C65.5869 20.3713 67.1205 19.626 69.4712 18.68C71.9652 17.648 73.6709 17.132 74.5882 17.132C76.1075 17.132 77.0249 17.82 77.3402 19.196C77.4549 19.626 77.5122 20.0273 77.5122 20.4C77.8849 20.2853 78.9885 19.7263 80.8232 18.723C82.3712 17.9203 83.4175 17.5333 83.9622 17.562C85.3955 17.648 86.1409 18.2787 86.1982 19.454C86.1982 19.3393 85.4815 20.7153 84.0482 23.582C82.8442 26.0473 82.2422 27.3373 82.2422 27.452C82.2422 28.2547 82.5575 28.656 83.1882 28.656C84.5069 28.656 86.6855 27.8247 89.7242 26.162C90.6702 25.646 92.1895 24.614 94.2822 23.066C95.8589 21.9193 96.8049 21.3747 97.1202 21.432C97.3495 21.4893 97.4642 21.69 97.4642 22.034ZM122.568 22.034C122.597 22.4927 121.809 23.3383 120.203 24.571C118.569 25.8037 117.093 26.7067 115.774 27.28C113.882 28.0827 112.22 28.484 110.786 28.484C109.181 28.484 107.977 27.8533 107.174 26.592C107.031 26.3913 106.845 26.0617 106.615 25.603C106.357 25.0297 106.171 24.6427 106.056 24.442C105.856 24.614 105.44 24.9293 104.809 25.388C104.236 25.7893 103.763 26.162 103.39 26.506C103.247 26.6207 102.774 27.194 101.971 28.226C101.283 29.086 100.81 29.516 100.552 29.516C99.9218 29.516 99.5492 29.3153 99.4345 28.914C99.4058 28.828 100.61 27.366 103.046 24.528C105.282 21.9767 106.4 20.3427 106.4 19.626C106.4 19.1387 106.142 18.852 105.626 18.766C105.168 18.7087 103.591 19.4253 100.896 20.916C100.294 21.2313 99.0905 22.0197 97.2845 23.281C95.8798 24.2843 95.0772 24.7573 94.8765 24.7C94.1312 24.5567 93.8158 24.2987 93.9305 23.926C93.9878 23.7253 94.8192 23.066 96.4245 21.948C98.0012 20.8587 99.1478 20.142 99.8645 19.798C103.104 18.164 105.11 17.304 105.884 17.218C106.429 17.1607 106.945 17.2897 107.432 17.605C107.948 17.9203 108.206 18.3073 108.206 18.766C108.206 19.2533 108.063 19.8553 107.776 20.572C107.49 21.3173 107.346 21.862 107.346 22.206C107.203 22.206 108.55 21.4033 111.388 19.798C114.484 17.992 116.104 17.1033 116.247 17.132C116.563 17.1893 116.72 17.4473 116.72 17.906C116.72 17.992 115.373 18.938 112.678 20.744L110.528 22.206C109.611 22.8653 108.808 23.41 108.12 23.84C108.034 23.9547 108.063 24.3273 108.206 24.958C108.264 25.3307 108.522 25.7463 108.98 26.205C109.582 26.7783 110.242 27.0507 110.958 27.022C112.363 26.9647 113.682 26.6493 114.914 26.076C115.86 25.6173 117.322 24.7143 119.3 23.367C121.02 22.1917 121.966 21.604 122.138 21.604C122.368 21.604 122.511 21.7473 122.568 22.034ZM144.291 22.12C144.262 22.722 142.8 23.9833 139.905 25.904C136.522 28.1113 133.971 29.2293 132.251 29.258C131.735 29.258 131.305 29.0143 130.961 28.527C130.646 28.097 130.502 27.5953 130.531 27.022C130.588 26.248 131.448 24.9293 133.111 23.066C134.487 21.4607 135.204 20.572 135.261 20.4C134.774 20.6867 134.086 21.002 133.197 21.346C132.022 21.8333 131.219 22.1773 130.789 22.378C128.61 23.582 126.202 24.6427 123.565 25.56C115.911 34.1313 111.496 39.0333 110.321 40.266C101.291 49.726 96.8189 54.456 96.9049 54.456C96.5035 54.456 96.2742 54.3127 96.2169 54.026C96.2169 53.94 100.603 48.952 109.375 39.062L113.03 35.063C114.349 33.601 115.71 32.0673 117.115 30.462C120.67 26.42 123.25 23.4387 124.855 21.518L123.221 22.378C121.358 23.4387 120.555 23.9833 120.813 24.012C120.526 23.9833 120.24 23.7253 119.953 23.238C119.752 22.8367 121.157 21.8047 124.167 20.142C124.826 19.798 125.557 19.3537 126.36 18.809C127.191 18.2643 127.808 17.8773 128.209 17.648C129.212 16.8167 129.943 16.4583 130.402 16.573C130.832 16.659 131.047 16.874 131.047 17.218C131.047 17.1607 130.302 17.992 128.811 19.712C127.435 21.26 126.575 22.2633 126.231 22.722C127.32 22.464 129.126 21.69 131.649 20.4C134.63 18.7947 136.723 17.992 137.927 17.992C138.271 17.992 138.414 18.2787 138.357 18.852C138.242 19.6547 137.182 21.0593 135.175 23.066C133.197 25.13 132.222 26.4487 132.251 27.022C132.308 27.4807 132.509 27.71 132.853 27.71C133.942 27.71 136.035 26.7067 139.131 24.7C142.084 22.7507 143.574 21.776 143.603 21.776C144.062 21.7187 144.291 21.8333 144.291 22.12ZM171.63 22.55C171.63 23.41 169.422 25.044 165.008 27.452C162.055 29.0573 159.647 29.86 157.784 29.86C156.838 29.86 156.092 29.516 155.548 28.828C155.089 28.226 154.888 27.5667 154.946 26.85C155.032 25.9327 155.204 25.216 155.462 24.7C154.946 24.8147 154.401 24.872 153.828 24.872L151.248 25.388C150.416 26.4487 149.614 27.2513 148.84 27.796C147.406 28.7993 146.002 29.3153 144.626 29.344C143.88 29.3727 143.278 29.129 142.82 28.613C142.418 28.183 142.218 27.6813 142.218 27.108C142.218 26.6207 143.393 25.0727 145.744 22.464C145.6 22.55 145.357 22.6647 145.013 22.808C144.669 22.9227 144.396 23.0373 144.196 23.152C142.992 23.8687 142.332 24.2127 142.218 24.184C141.644 24.0407 141.415 23.6967 141.53 23.152C141.587 22.9513 142.218 22.507 143.422 21.819C144.884 20.959 145.772 20.4 146.088 20.142C149.27 17.7913 150.674 16.6447 150.302 16.702C150.588 16.6733 150.846 16.7593 151.076 16.96C151.305 17.1607 151.42 17.39 151.42 17.648C151.42 18.4793 150.99 19.4253 150.13 20.486L149.184 21.862C149.642 21.9193 150.158 22.12 150.732 22.464C151.19 22.722 151.592 23.066 151.936 23.496L154 23.238C155.146 23.1807 155.892 23.0947 156.236 22.98C156.465 22.8367 156.852 22.507 157.397 21.991L158.73 20.744C159.532 20.056 160.134 19.712 160.536 19.712C160.851 19.6833 161.123 19.798 161.353 20.056C161.553 20.2567 161.654 20.4573 161.654 20.658C161.654 20.4573 160.765 21.4033 158.988 23.496C157.669 25.1013 157.01 26.162 157.01 26.678C157.01 27.6813 157.44 28.1687 158.3 28.14C159.475 28.0827 161.281 27.4807 163.718 26.334C164.807 25.8467 166.326 24.915 168.276 23.539C169.91 22.421 170.827 21.862 171.028 21.862C171.429 21.8907 171.63 22.12 171.63 22.55ZM149.098 24.614C149.098 24.3273 148.897 24.098 148.496 23.926C147.722 23.582 147.406 23.4673 147.55 23.582C147.378 23.754 147.005 24.0693 146.432 24.528C145.084 25.646 144.425 26.4487 144.454 26.936C144.482 27.2513 144.769 27.452 145.314 27.538C145.973 27.5953 146.747 27.28 147.636 26.592C148.61 25.8467 149.098 25.1873 149.098 24.614ZM213.447 22.034C213.389 22.9227 211.039 24.7573 206.395 27.538C203.585 29.2007 201.12 30.118 198.999 30.29C198.368 30.3473 197.795 30.1037 197.279 29.559C196.763 29.0143 196.505 28.3407 196.505 27.538C196.505 27.022 197.078 25.646 198.225 23.41C198.397 23.0373 198.827 22.378 199.515 21.432C200.059 20.7153 200.317 20.228 200.289 19.97C200.26 19.5687 199.973 19.3393 199.429 19.282C198.626 19.2247 196.39 20.3713 192.721 22.722C192.176 23.238 191.402 24.1553 190.399 25.474C189.51 26.6207 188.822 27.194 188.335 27.194C187.733 27.194 187.36 26.85 187.217 26.162C187.188 26.0473 188.048 25.0727 189.797 23.238C191.058 21.948 191.689 20.8157 191.689 19.841C191.689 19.1817 191.316 18.852 190.571 18.852C189.653 18.852 188.564 19.0813 187.303 19.54C184.866 20.4573 182.945 21.4893 181.541 22.636C180.881 23.1807 180.193 23.84 179.477 24.614C178.588 25.5887 177.986 26.2193 177.671 26.506C176.266 27.7387 175.406 28.3407 175.091 28.312C174.575 28.226 174.288 27.8533 174.231 27.194C174.202 26.8787 174.89 25.99 176.295 24.528C177.986 22.7793 178.817 21.69 178.789 21.26C178.731 20.6293 178.416 20.314 177.843 20.314C177.097 20.314 175.721 20.8013 173.715 21.776C173.199 22.0053 172.396 22.5357 171.307 23.367C170.418 24.0263 169.873 24.3273 169.673 24.27C169.013 24.098 168.698 23.84 168.727 23.496C168.813 22.7793 170.275 21.6613 173.113 20.142C174.661 19.3107 176.495 18.7947 178.617 18.594C179.133 18.5367 179.634 18.7947 180.122 19.368C180.523 19.884 180.767 20.4 180.853 20.916C181.569 20.3713 183.103 19.626 185.454 18.68C187.948 17.648 189.653 17.132 190.571 17.132C192.09 17.132 193.007 17.82 193.323 19.196C193.437 19.626 193.495 20.0273 193.495 20.4C193.867 20.2853 194.971 19.7263 196.806 18.723C198.354 17.9203 199.4 17.5333 199.945 17.562C201.378 17.648 202.123 18.2787 202.181 19.454C202.181 19.3393 201.464 20.7153 200.031 23.582C198.827 26.0473 198.225 27.3373 198.225 27.452C198.225 28.2547 198.54 28.656 199.171 28.656C200.489 28.656 202.668 27.8247 205.707 26.162C206.653 25.646 208.172 24.614 210.265 23.066C211.841 21.9193 212.787 21.3747 213.103 21.432C213.332 21.4893 213.447 21.69 213.447 22.034ZM219.975 23.281C220.262 24.3703 219.789 25.603 218.556 26.979C217.381 28.3263 216.134 29.1433 214.815 29.43C213.812 29.6593 212.823 29.4443 211.848 28.785C210.816 28.097 210.314 27.2657 210.343 26.291C210.4 24.8003 211.604 23.0803 213.955 21.131L216.148 18.207C217.18 16.8597 217.925 16.1287 218.384 16.014C218.986 15.842 219.301 16.0713 219.33 16.702C219.359 16.9313 219.144 17.304 218.685 17.82C218.083 18.508 217.696 18.981 217.524 19.239C216.865 20.185 216.363 20.9877 216.019 21.647C216.707 21.5897 217.166 21.5897 217.395 21.647C218.886 21.733 219.746 22.2777 219.975 23.281ZM218.341 24.012C218.226 23.2667 217.538 22.98 216.277 23.152C215.073 23.324 214.256 23.582 213.826 23.926C212.995 25.646 212.55 26.42 212.493 26.248C212.608 26.7353 212.88 27.1223 213.31 27.409C213.711 27.6957 214.156 27.796 214.643 27.71C215.388 27.624 216.22 27.151 217.137 26.291C218.083 25.431 218.484 24.6713 218.341 24.012ZM68.1696 31.88C68.2136 32.276 67.8616 32.991 67.1136 34.025C66.2776 35.169 65.2876 36.181 64.1436 37.061C62.0316 38.689 58.9626 40.471 54.9366 42.407C54.7826 42.561 54.4306 42.869 53.8806 43.331C53.3526 43.749 52.9456 44.123 52.6596 44.453C51.8456 45.377 51.2846 46.158 50.9766 46.796C52.6266 46.268 53.7046 46.026 54.2106 46.07C54.5846 46.092 54.9586 46.235 55.3326 46.499C55.7066 46.785 55.8936 47.038 55.8936 47.258C55.8936 48.336 54.9916 49.909 53.1876 51.977C51.6476 53.781 50.1186 54.683 48.6006 54.683C48.3366 54.683 48.0176 54.507 47.6436 54.155C47.2256 53.759 47.0276 53.374 47.0496 53C47.1376 51.57 47.5556 50.217 48.3036 48.941L50.1846 45.938C49.8326 46.158 49.4586 46.433 49.0626 46.763C48.5566 47.181 48.2046 47.456 48.0066 47.588C46.1586 48.908 45.1466 49.579 44.9706 49.601C44.7286 49.645 44.5636 49.458 44.4756 49.04C44.4536 48.908 45.7076 47.885 48.2376 45.971C50.2176 44.475 51.9556 43.067 53.4516 41.747C53.6496 41.549 54.5406 40.537 56.1246 38.711C57.5546 37.039 58.9296 35.587 60.2496 34.355C63.3516 31.451 65.4086 29.999 66.4206 29.999C67.4766 29.999 68.0596 30.626 68.1696 31.88ZM66.9156 31.946C66.9816 31.77 66.9706 31.594 66.8826 31.418C66.7946 31.242 66.6626 31.143 66.4866 31.121C65.8046 31.055 64.0446 32.386 61.2066 35.114C58.9846 37.16 57.3236 38.964 56.2236 40.526C58.9736 39.14 61.2396 37.765 63.0216 36.401C65.0676 34.861 66.3656 33.376 66.9156 31.946ZM54.4416 47.522C54.4416 47.324 54.2986 47.225 54.0126 47.225C53.0226 47.181 51.7466 47.588 50.1846 48.446C49.7666 48.93 49.4036 49.458 49.0956 50.03C48.5236 51.064 48.2596 51.988 48.3036 52.802C48.3476 53.286 48.6116 53.506 49.0956 53.462C49.9316 53.396 50.9876 52.637 52.2636 51.185C53.7596 49.469 54.4856 48.248 54.4416 47.522ZM96.9301 52.472C96.9301 52.692 96.3031 52.912 95.0491 53.132C93.9271 53.308 92.9921 53.396 92.2442 53.396C90.9241 53.396 90.2641 52.78 90.2641 51.548C90.2641 51.262 90.5501 50.624 91.1221 49.634C91.6721 48.666 91.9362 48.094 91.9142 47.918C91.8701 47.588 91.4741 47.39 90.7261 47.324C90.5062 47.324 90.0881 47.489 89.4721 47.819C88.9001 48.127 88.5261 48.248 88.3501 48.182C88.2181 48.138 88.1521 48.006 88.1521 47.786C88.1301 47.478 88.5481 47.115 89.4061 46.697C90.2421 46.279 91.0121 46.07 91.7161 46.07C92.7281 46.07 93.3441 46.62 93.5641 47.72C93.6521 48.094 93.5641 48.479 93.3002 48.875C92.8381 49.579 92.5961 49.942 92.5741 49.964C92.0461 51.086 91.7822 51.614 91.7822 51.548C91.7381 51.944 92.0461 52.186 92.7061 52.274C93.0581 52.318 93.7071 52.263 94.6532 52.109C95.7531 51.911 96.3361 51.812 96.4021 51.812C96.7981 51.768 96.9741 51.988 96.9301 52.472ZM100.164 38.876C100.142 39.47 100.01 40.009 99.7681 40.493C99.5481 40.977 99.3061 41.23 99.0421 41.252C98.5141 41.296 98.2061 41.01 98.1181 40.394L98.2501 39.47C97.5241 39.756 93.9381 41.758 87.4921 45.476C84.6981 47.104 82.3441 48.534 80.4301 49.766C77.7681 51.46 76.3601 52.296 76.2061 52.274C75.7881 52.208 75.5461 51.966 75.4801 51.548C75.4361 51.196 76.6791 50.162 79.2091 48.446C82.5971 46.18 84.8081 44.596 85.8421 43.694C89.8021 40.328 92.2661 37.27 93.2341 34.52C93.0361 34.344 92.8381 34.256 92.6401 34.256C92.3321 34.256 88.9661 35.73 82.5421 38.678C77.1301 41.164 73.6981 42.88 72.2461 43.826C72.0921 43.936 71.9161 44.244 71.7181 44.75C71.5641 45.168 71.3441 45.388 71.0581 45.41C70.2001 45.41 69.7821 45.124 69.8041 44.552C69.8481 44.046 70.3101 43.54 71.1901 43.034C72.9501 42 76.5361 40.24 81.9481 37.754C89.4721 34.234 93.5421 32.474 94.1581 32.474C94.7081 32.474 95.0272 32.859 95.1152 33.629C95.2031 34.487 93.9161 36.654 91.2541 40.13C90.9681 40.526 90.4401 41.12 89.6701 41.912C89.0322 42.572 88.5921 43.1 88.3501 43.496L94.1581 40.328C97.2821 38.612 99.0861 37.776 99.5702 37.82C100.01 37.864 100.208 38.216 100.164 38.876ZM117.851 48.182C117.851 48.336 116.256 49.48 113.066 51.614C110.778 53.154 108.875 53.924 107.357 53.924C106.257 53.924 105.575 53.44 105.311 52.472C105.179 51.966 105.168 51.372 105.278 50.69C104.354 51.306 103.496 51.812 102.704 52.208C101.34 52.912 100.185 53.264 99.2389 53.264C97.9189 53.264 97.2589 52.582 97.2589 51.218C97.2589 50.074 98.2599 48.435 100.262 46.301C102.418 43.925 103.969 42.748 104.915 42.77C106.015 42.814 106.939 43.342 107.687 44.354C107.885 44.618 108.116 45.179 108.38 46.037C109.326 45.465 109.689 45.168 109.469 45.146C110.151 45.19 110.459 45.454 110.393 45.938C110.327 46.334 109.832 47.027 108.908 48.017C108.204 48.831 107.654 49.403 107.258 49.733C106.774 50.877 106.543 51.548 106.565 51.746C106.631 52.318 106.961 52.604 107.555 52.604C108.479 52.604 110.074 51.944 112.34 50.624C116.014 48.49 117.697 47.434 117.389 47.456C117.697 47.434 117.851 47.676 117.851 48.182ZM107.093 46.202C107.093 45.85 106.873 45.41 106.433 44.882C105.971 44.332 105.531 44.068 105.113 44.09C104.321 44.134 102.979 45.19 101.087 47.258C99.3269 49.216 98.4909 50.536 98.5789 51.218C98.6449 51.68 98.9749 51.944 99.5689 52.01C100.009 52.054 100.922 51.702 102.308 50.954C104.552 49.788 106.125 48.611 107.027 47.423L107.093 46.202ZM134.713 47.72C134.691 48.182 133.569 49.15 131.347 50.624C128.751 52.318 126.793 53.176 125.473 53.198C125.077 53.198 124.747 53.011 124.483 52.637C124.241 52.307 124.131 51.922 124.153 51.482C124.197 50.888 124.857 49.876 126.133 48.446C127.189 47.214 127.739 46.532 127.783 46.4C127.409 46.62 126.881 46.862 126.199 47.126C125.297 47.5 124.681 47.764 124.351 47.918C122.679 48.842 120.831 49.656 118.807 50.36C112.933 56.938 109.545 60.7 108.643 61.646C101.713 68.906 98.2808 72.536 98.3468 72.536C98.0388 72.536 97.8628 72.426 97.8188 72.206C97.8188 72.14 101.185 68.312 107.917 60.722L110.722 57.653C111.734 56.531 112.779 55.354 113.857 54.122C116.585 51.02 118.565 48.732 119.797 47.258L118.543 47.918C117.113 48.732 116.497 49.15 116.695 49.172C116.475 49.15 116.255 48.952 116.035 48.578C115.881 48.27 116.959 47.478 119.269 46.202C119.775 45.938 120.336 45.597 120.952 45.179C121.59 44.761 122.063 44.464 122.371 44.288C123.141 43.65 123.702 43.375 124.054 43.463C124.384 43.529 124.549 43.694 124.549 43.958C124.549 43.914 123.977 44.552 122.833 45.872C121.777 47.06 121.117 47.83 120.853 48.182C121.689 47.984 123.075 47.39 125.011 46.4C127.299 45.168 128.905 44.552 129.829 44.552C130.093 44.552 130.203 44.772 130.159 45.212C130.071 45.828 129.257 46.906 127.717 48.446C126.199 50.03 125.451 51.042 125.473 51.482C125.517 51.834 125.671 52.01 125.935 52.01C126.771 52.01 128.377 51.24 130.753 49.7C133.019 48.204 134.163 47.456 134.185 47.456C134.537 47.412 134.713 47.5 134.713 47.72ZM166.452 47.654C166.408 48.336 164.604 49.744 161.04 51.878C158.884 53.154 156.992 53.858 155.364 53.99C154.88 54.034 154.44 53.847 154.044 53.429C153.648 53.011 153.45 52.494 153.45 51.878C153.45 51.482 153.89 50.426 154.77 48.71C154.902 48.424 155.232 47.918 155.76 47.192C156.178 46.642 156.376 46.268 156.354 46.07C156.332 45.762 156.112 45.586 155.694 45.542C155.078 45.498 153.362 46.378 150.546 48.182C150.128 48.578 149.534 49.282 148.764 50.294C148.082 51.174 147.554 51.614 147.18 51.614C146.718 51.614 146.432 51.35 146.322 50.822C146.3 50.734 146.96 49.986 148.302 48.578C149.27 47.588 149.754 46.719 149.754 45.971C149.754 45.465 149.468 45.212 148.896 45.212C148.192 45.212 147.356 45.388 146.388 45.74C144.518 46.444 143.044 47.236 141.966 48.116C141.46 48.534 140.932 49.04 140.382 49.634C139.7 50.382 139.238 50.866 138.996 51.086C137.918 52.032 137.258 52.494 137.016 52.472C136.62 52.406 136.4 52.12 136.356 51.614C136.334 51.372 136.862 50.69 137.94 49.568C139.238 48.226 139.876 47.39 139.854 47.06C139.81 46.576 139.568 46.334 139.128 46.334C138.556 46.334 137.5 46.708 135.96 47.456C135.564 47.632 134.948 48.039 134.112 48.677C133.43 49.183 133.012 49.414 132.858 49.37C132.352 49.238 132.11 49.04 132.132 48.776C132.198 48.226 133.32 47.368 135.498 46.202C136.686 45.564 138.094 45.168 139.722 45.014C140.118 44.97 140.503 45.168 140.877 45.608C141.185 46.004 141.372 46.4 141.438 46.796C141.988 46.378 143.165 45.806 144.969 45.08C146.883 44.288 148.192 43.892 148.896 43.892C150.062 43.892 150.766 44.42 151.008 45.476C151.096 45.806 151.14 46.114 151.14 46.4C151.426 46.312 152.273 45.883 153.681 45.113C154.869 44.497 155.672 44.2 156.09 44.222C157.19 44.288 157.762 44.772 157.806 45.674C157.806 45.586 157.256 46.642 156.156 48.842C155.232 50.734 154.77 51.724 154.77 51.812C154.77 52.428 155.012 52.736 155.496 52.736C156.508 52.736 158.18 52.098 160.512 50.822C161.238 50.426 162.404 49.634 164.01 48.446C165.22 47.566 165.946 47.148 166.188 47.192C166.364 47.236 166.452 47.39 166.452 47.654ZM184.431 48.182C184.431 48.336 182.836 49.48 179.646 51.614C177.358 53.154 175.455 53.924 173.937 53.924C172.837 53.924 172.155 53.44 171.891 52.472C171.759 51.966 171.748 51.372 171.858 50.69C170.934 51.306 170.076 51.812 169.284 52.208C167.92 52.912 166.765 53.264 165.819 53.264C164.499 53.264 163.839 52.582 163.839 51.218C163.839 50.074 164.84 48.435 166.842 46.301C168.998 43.925 170.549 42.748 171.495 42.77C172.595 42.814 173.519 43.342 174.267 44.354C174.465 44.618 174.696 45.179 174.96 46.037C175.906 45.465 176.269 45.168 176.049 45.146C176.731 45.19 177.039 45.454 176.973 45.938C176.907 46.334 176.412 47.027 175.488 48.017C174.784 48.831 174.234 49.403 173.838 49.733C173.354 50.877 173.123 51.548 173.145 51.746C173.211 52.318 173.541 52.604 174.135 52.604C175.059 52.604 176.654 51.944 178.92 50.624C182.594 48.49 184.277 47.434 183.969 47.456C184.277 47.434 184.431 47.676 184.431 48.182ZM173.673 46.202C173.673 45.85 173.453 45.41 173.013 44.882C172.551 44.332 172.111 44.068 171.693 44.09C170.901 44.134 169.559 45.19 167.667 47.258C165.907 49.216 165.071 50.536 165.159 51.218C165.225 51.68 165.555 51.944 166.149 52.01C166.589 52.054 167.502 51.702 168.888 50.954C171.132 49.788 172.705 48.611 173.607 47.423L173.673 46.202ZM205.979 48.05C205.957 48.27 205.264 48.864 203.9 49.832C202.558 50.822 201.469 51.526 200.633 51.944C198.829 52.846 196.948 53.319 194.99 53.363C193.01 53.407 191.657 52.692 190.931 51.218C190.623 50.624 190.491 50.162 190.535 49.832C188.533 51.394 186.993 52.142 185.915 52.076C184.969 52.01 184.199 51.57 183.605 50.756C183.209 50.184 183.011 49.612 183.011 49.04C183.055 48.402 183.319 48.138 183.803 48.248C184.067 48.314 184.221 48.468 184.265 48.71C184.419 49.392 184.529 49.788 184.595 49.898C184.925 50.426 185.233 50.712 185.519 50.756C185.915 50.8 186.707 50.536 187.895 49.964C189.039 49.414 189.897 48.886 190.469 48.38C191.459 47.346 191.987 46.609 192.053 46.169C192.119 45.795 191.899 45.586 191.393 45.542C190.755 45.498 189.809 45.806 188.555 46.466C188.335 46.576 187.994 46.84 187.532 47.258C187.18 47.588 186.927 47.742 186.773 47.72C186.465 47.698 186.289 47.544 186.245 47.258C186.179 46.774 186.949 46.092 188.555 45.212C189.721 44.552 190.821 44.244 191.855 44.288C192.471 44.332 192.9 44.464 193.142 44.684L193.967 45.74C196.013 44.684 197.201 44.156 197.531 44.156C198.059 44.178 198.532 44.431 198.95 44.915C199.39 45.443 199.555 45.982 199.445 46.532C199.269 47.412 198.961 47.852 198.521 47.852C198.345 47.852 198.213 47.72 198.125 47.456C198.081 47.368 198.103 47.236 198.191 47.06C198.279 46.884 198.323 46.752 198.323 46.664C198.279 45.982 198.059 45.608 197.663 45.542C197.069 45.476 196.123 45.872 194.825 46.73C193.857 47.346 193.153 48.006 192.713 48.71C192.251 49.48 192.009 49.942 191.987 50.096C191.921 50.734 192.262 51.251 193.01 51.647C193.648 51.999 194.319 52.164 195.023 52.142C196.695 52.076 198.213 51.724 199.577 51.086C200.237 50.778 201.436 50.041 203.174 48.875C204.582 47.929 205.407 47.478 205.649 47.522C205.913 47.566 206.023 47.742 205.979 48.05Z" fill="black"/>
<path d="M68.2944 8.05824C61.3518 8.05824 54.609 8.14451 47.7623 9.56274C38.3067 11.5214 28.9732 14.4127 19.8406 17.5277C14.5598 19.3289 7.5116 21.3188 4.13181 26.2008C1.22596 30.3981 0.272372 36.9521 1.56531 41.8653C4.70275 53.7875 19.6824 58.1598 30.0623 60.4503C50.4705 64.9537 72.3026 64.5682 93.0744 65.2293C118.85 66.0496 144.853 66.9121 170.6 64.9638C187.405 63.6922 204.086 61.0431 220.337 56.5563C228.592 54.2773 243.59 51.0761 248.657 42.7945C256.216 30.4426 223.022 15.4456 216.399 12.616C192.675 2.48047 167.88 0.590787 142.369 1.06674C115.262 1.57246 89.9265 7.64933 63.5154 12.8372" stroke="black" stroke-linecap="round"/>
</svg>
